<svg>
  <symbol width="21" height="18" viewBox="0 0 21 18" fill="none" xmlns="http://www.w3.org/2000/svg" id="cart">
    <path fill-rule="evenodd" clip-rule="evenodd" d="M0.5 1C0.5 0.447715 0.947715 0 1.5 0H3.88919C4.30755 0 4.6817 0.260434 4.82697 0.652768L5.69608 3H19.5C19.8095 3 20.1016 3.14331 20.2909 3.38811C20.4803 3.6329 20.5457 3.95159 20.4679 4.25117L19.3931 8.39351C19.0498 9.71634 17.8559 10.64 16.4892 10.64H7.73613L7.97647 11.3293C8.11652 11.7309 8.49534 12 8.92071 12H16C16.5523 12 17 12.4477 17 13C17 13.5523 16.5523 14 16 14H8.92071C7.6446 14 6.50815 13.1927 6.08798 11.9878L5.38414 9.96925C5.3727 9.93645 5.36298 9.90307 5.35501 9.86925L4.04079 4.28934L3.19311 2H1.5C0.947715 2 0.5 1.55228 0.5 1ZM6.26289 5L7.12021 8.64H16.4892C16.9448 8.64 17.3427 8.33211 17.4572 7.89117L18.2074 5H6.26289ZM9.5 16.5C9.5 17.3284 8.82843 18 8 18C7.17157 18 6.5 17.3284 6.5 16.5C6.5 15.6716 7.17157 15 8 15C8.82843 15 9.5 15.6716 9.5 16.5ZM16 18C16.8284 18 17.5 17.3284 17.5 16.5C17.5 15.6716 16.8284 15 16 15C15.1716 15 14.5 15.6716 14.5 16.5C14.5 17.3284 15.1716 18 16 18Z" fill="black"/>
  </symbol>
  <symbol width="34" height="34" viewBox="0 0 34 34" fill="none" xmlns="http://www.w3.org/2000/svg" id="compare">
    <rect width="34" height="34" rx="17" fill="white"/>
    <path d="M8.11011 20.7679L11.3552 10.6506L14.8659 20.7679" stroke="black" stroke-width="1.5" stroke-linejoin="round"/>
    <path d="M19.1338 20.7679L22.3788 10.6506L25.8895 20.7679" stroke="black" stroke-width="1.5" stroke-linejoin="round"/>
    <circle cx="17" cy="10.6506" r="1.5532" stroke="black" stroke-width="1.5"/>
    <path d="M18.9136 10.5393H20.3994" stroke="black" stroke-width="1.5" stroke-linecap="round"/>
    <path d="M13.6 10.5393H15.0858" stroke="black" stroke-width="1.5" stroke-linecap="round"/>
    <path d="M11.4881 24.231C9.68302 24.231 8.17674 22.9515 7.82672 21.25H15.1496C14.7995 22.9515 13.2932 24.231 11.4881 24.231Z" stroke="black" stroke-width="1.5"/>
    <path d="M22.5121 24.231C20.7069 24.231 19.2007 22.9515 18.8506 21.25H26.1735C25.8235 22.9515 24.3172 24.231 22.5121 24.231Z" stroke="black" stroke-width="1.5"/>
  </symbol>
  <symbol width="20" height="19" viewBox="0 0 20 19" fill="none" xmlns="http://www.w3.org/2000/svg" id="like">
    <path d="M10 17C6.40583 15.4602 1.51375 11.0571 1.01457 6.00452C0.787298 3.70415 3.26091 1.00002 5.50727 1.00001C7.61203 1.00001 9.10144 2.15488 9.99998 4.0797C10.8985 2.15488 12.388 0.999995 14.4927 1C16.7391 1.00001 19.2127 3.70413 18.9854 6.00451C18.4862 11.0571 13.5942 15.4602 10 17Z" stroke="black" stroke-width="2"/>
  </symbol>
  <symbol width="12" height="21" viewBox="0 0 12 21" fill="none" xmlns="http://www.w3.org/2000/svg" id="arrow-right">
    <path d="M1 1L10 10.5L1 20" stroke="black" stroke-width="2" stroke-linecap="round"/>
  </symbol>
  <symbol width="12" height="21" viewBox="0 0 12 21" fill="none" xmlns="http://www.w3.org/2000/svg" id="arrow-left">
    <path d="M11 1L2 10.5L11 20" stroke="black" stroke-width="2" stroke-linecap="round"/>
  </symbol>
</svg>